<svg width="205" height="58" viewBox="0 0 205 58" fill="none" xmlns="http://www.w3.org/2000/svg">
<g clip-path="url(#clip0_16101_179)" filter="url(#filter0_d_16101_179)">
<path d="M27.8699 49.9998H7.46893C5.99493 49.9998 5.12793 48.6828 5.12793 47.5318C5.12793 46.8508 5.40393 46.2338 5.85093 45.7868L14.7539 36.8838L27.8699 49.9998Z" fill="#FF4F12"/>
<path d="M7.46895 50C5.92795 50 4.00295 48.768 4.00295 46.319V18.892C4.00295 15.186 3.81395 12.579 6.46095 9.932L16.392 0L34.003 17.639L5.85095 45.787C5.40395 46.234 5.12795 46.85 5.12795 47.532C5.12795 48.683 5.99495 50 7.46895 50Z" fill="#7700FF"/>
<path d="M159.441 35.7641L166.285 43.5868H161.84L156.546 37.557V43.5868H152.862V28.9996H156.546V34.2937L161.751 28.9996H166.109L159.441 35.7641ZM49.1823 32.9412C51.872 32.9412 53.1006 31.6471 53.1006 29.706C53.1006 27.765 51.872 26.4709 49.1823 26.4709H43.8601V32.9412H49.1823ZM49.2996 23C53.9203 23 56.9617 25.3815 56.9617 29.705C56.9617 34.0286 53.9203 36.4111 49.2996 36.4111H43.8601V43.5868H40V23H49.2996ZM65.6741 40.528C67.8376 40.528 69.8559 38.97 69.8559 36.2932C69.8559 33.6164 67.8376 32.0583 65.6741 32.0583C63.5105 32.0583 61.4923 33.6174 61.4923 36.2932C61.4923 38.97 63.5105 40.528 65.6741 40.528ZM65.6741 28.5884C69.6514 28.5884 73.5987 31.1765 73.5987 36.2942C73.5987 41.4119 69.6514 43.999 65.6741 43.999C61.6967 43.999 57.7494 41.4119 57.7494 36.2942C57.7494 31.1765 61.6967 28.5884 65.6741 28.5884ZM83.0065 40.5291C80.7839 40.5291 79.1464 38.9115 79.1464 36.2942C79.1464 33.7061 80.842 32.0593 83.0065 32.0593C84.3223 32.0593 85.4627 32.6771 86.3696 34.0588L89.5283 32.2357C88.4751 29.9711 86.1943 28.5894 83.0366 28.5894C78.9129 28.5894 75.4045 31.6481 75.4045 36.2942C75.4045 40.9413 78.7386 44 83.0366 44C86.1361 44 88.2125 42.588 89.6746 40.0886L86.6332 38.4126C85.7553 39.6462 84.8194 40.5291 83.0065 40.5291ZM122.239 37.2647C122.064 39.5001 121.624 40 120.864 40C120.345 40 120.101 39.9425 119.745 39.8488L119.763 43.6231C119.763 43.6231 120.221 43.7642 121.069 43.7642C124.197 43.7642 125.368 41.7344 125.66 37.4119L126.011 32.3234H130.163V43.5576H133.848V28.9996H122.852L122.239 37.2647ZM115.443 34.3521C115.092 32.529 113.718 31.4113 111.671 31.4113C109.741 31.4113 108.279 32.7053 107.752 34.3521H115.443ZM111.787 28.5884C115.94 28.5884 118.864 31.6179 118.864 35.882V37.176H107.693C107.926 39.4114 109.505 40.8223 111.67 40.8223C113.629 40.8223 114.448 39.9697 115.355 38.8228L118.279 40.2932C116.817 42.7926 114.798 43.999 111.611 43.999C107.575 43.999 104.154 40.911 104.154 36.2932C104.155 31.6763 107.576 28.5884 111.787 28.5884ZM147.199 34.3521C146.848 32.529 145.473 31.4113 143.427 31.4113C141.497 31.4113 140.035 32.7053 139.508 34.3521H147.199ZM143.544 28.5884C147.697 28.5884 150.621 31.6179 150.621 35.882V37.176H139.449C139.683 39.4114 141.262 40.8223 143.427 40.8223C145.386 40.8223 146.205 39.9697 147.112 38.8228L150.036 40.2932C148.574 42.7926 146.555 43.999 143.368 43.999C139.332 43.999 135.911 40.911 135.911 36.2932C135.911 31.6763 139.332 28.5884 143.544 28.5884ZM90.82 32.2347H95.1481V43.5868H98.8329V32.2347H103.161V28.9996H90.82V32.2347ZM173.6 40.5291C175.764 40.5291 177.782 38.971 177.782 36.2942C177.782 33.6174 175.764 32.0593 173.6 32.0593C171.437 32.0593 169.418 33.6184 169.418 36.2942C169.418 38.97 171.436 40.5291 173.6 40.5291ZM173.6 28.5884C177.578 28.5884 181.525 31.1765 181.525 36.2942C181.525 41.4119 177.578 44 173.6 44C169.623 44 165.676 41.4119 165.676 36.2942C165.676 31.1765 169.623 28.5884 173.6 28.5884ZM196.186 28.9976L192.186 39.2139L188.187 28.9976H183.371V43.5586H186.873V34.34L190.755 43.5586H193.615L197.498 34.34V43.5586H201V28.9976H196.186Z" fill="white"/>
</g>
<defs>
<filter id="filter0_d_16101_179" x="0" y="0" width="205" height="58" filterUnits="userSpaceOnUse" color-interpolation-filters="sRGB">
<feFlood flood-opacity="0" result="BackgroundImageFix"/>
<feColorMatrix in="SourceAlpha" type="matrix" values="0 0 0 0 0 0 0 0 0 0 0 0 0 0 0 0 0 0 127 0" result="hardAlpha"/>
<feOffset dy="4"/>
<feGaussianBlur stdDeviation="2"/>
<feComposite in2="hardAlpha" operator="out"/>
<feColorMatrix type="matrix" values="0 0 0 0 0 0 0 0 0 0 0 0 0 0 0 0 0 0 0.25 0"/>
<feBlend mode="normal" in2="BackgroundImageFix" result="effect1_dropShadow_16101_179"/>
<feBlend mode="normal" in="SourceGraphic" in2="effect1_dropShadow_16101_179" result="shape"/>
</filter>
<clipPath id="clip0_16101_179">
<rect width="197" height="50" fill="white" transform="translate(4)"/>
</clipPath>
</defs>
</svg>
